<svg xmlns="http://www.w3.org/2000/svg" xmlns:xlink="http://www.w3.org/1999/xlink" x="0" y="0" enable-background="new 0 0 14 14" version="1.1" viewBox="0 0 14 17.5" xml:space="preserve"><path fill-rule="evenodd" d="M10,6v7c0,0.55,0.45,1,1,1h2c0.55,0,1-0.45,1-1V6c0-0.55-0.45-1-1-1h-2 C10.45,5,10,5.45,10,6z M5,1v12c0,0.55,0.45,1,1,1h2c0.55,0,1-0.45,1-1V1c0-0.55-0.45-1-1-1H6C5.45,0,5,0.45,5,1z M0,9v4 c0,0.55,0.45,1,1,1h2c0.55,0,1-0.45,1-1V9c0-0.55-0.45-1-1-1H1C0.45,8,0,8.45,0,9z" clip-rule="evenodd"/></svg>