<svg xmlns="http://www.w3.org/2000/svg" xmlns:xlink="http://www.w3.org/1999/xlink" x="0" y="0" fill-rule="evenodd" clip-rule="evenodd" version="1.1" viewBox="0 0 362 372.5" xml:space="preserve"><g><path d="M24 0l54 0 0 114 206 0 0 -114 27 0 51 55 0 284c0,13 -10,23 -23,23l-315 0c-13,0 -24,-10 -24,-23l0 -315c0,-13 11,-24 24,-24zm24 152l266 0 0 189 -266 0 0 -189z" class="fil0"/><rect width="50.875" height="78.352" x="208" y="1" class="fil0"/><rect width="204.238" height="22.285" x="79" y="181" class="fil0"/><rect width="204.238" height="22.285" x="79" y="238" class="fil0"/><rect width="204.238" height="22.285" x="79" y="294" class="fil0"/></g></svg>